<svg xmlns="http://www.w3.org/2000/svg" viewBox="0 0 900 1080" width="100%" height="100%">
  <style>
    .bg { fill: #0d1117; }
    .card-bg { fill: #0d1117; stroke: #30363d; stroke-width: 1; rx: 12; }
    .subcard-bg { fill: #0d1117; stroke: #21262d; stroke-width: 1; rx: 8; }
    
    .title-bar-text { font-family: 'Fira Code', 'JetBrains Mono', monospace; font-size: 13px; fill: #8b949e; }
    .cmd-text { font-family: 'Fira Code', 'JetBrains Mono', monospace; font-size: 14px; fill: #7ee787; font-weight: 600; }
    .cmd-args { font-family: 'Fira Code', monospace; font-size: 14px; fill: #8b949e; }
    
    /* Dedicated monospace font spacing for pixel-perfect ASCII */
    .ascii-text { font-family: 'Cascadia Code', 'Fira Code', 'Courier New', monospace; font-size: 8.5px; fill: #e6edf3; letter-spacing: 1px; xml:space: preserve; }
    
    .name-heading { font-family: -apple-system, BlinkMacSystemFont, "Segoe UI", Roboto, sans-serif; font-size: 28px; font-weight: 700; fill: #ffffff; }
    .sub-heading { font-family: 'Fira Code', monospace; font-size: 14px; fill: #8b949e; }
    
    .label-text { font-family: 'Fira Code', monospace; font-size: 13px; fill: #8b949e; }
    .value-text { font-family: 'Fira Code', monospace; font-size: 13px; fill: #7ee787; }
    .value-white { font-family: 'Fira Code', monospace; font-size: 13px; fill: #e6edf3; }
    
    .badge-text { font-family: 'Fira Code', monospace; font-size: 10px; fill: #7ee787; font-weight: bold; }
    .tech-title { font-family: 'Fira Code', monospace; font-size: 11px; fill: #8b949e; }
    .tech-name { font-family: -apple-system, BlinkMacSystemFont, "Segoe UI", sans-serif; font-size: 12px; fill: #c9d1d9; }
    
    .proj-title { font-family: -apple-system, BlinkMacSystemFont, "Segoe UI", sans-serif; font-size: 14px; font-weight: 600; fill: #e6edf3; }
    .proj-desc { font-family: -apple-system, BlinkMacSystemFont, "Segoe UI", sans-serif; font-size: 12px; fill: #8b949e; }
    
    .quote-text { font-family: Georgia, serif; font-size: 14px; font-style: italic; fill: #7ee787; }
    .footer-text { font-family: 'Fira Code', monospace; font-size: 13px; fill: #8b949e; }
  </style>

  <!-- Outer Window -->
  <rect class="bg" width="900" height="1080" rx="12" />
  <rect class="card-bg" x="1" y="1" width="898" height="1078" rx="12" />

  <!-- Top Bar Buttons & Title -->
  <circle cx="25" cy="25" r="6" fill="#ff5f56"/>
  <circle cx="45" cy="25" r="6" fill="#ffbd2e"/>
  <circle cx="65" cy="25" r="6" fill="#27c93f"/>
  <text x="85" y="29" class="title-bar-text">sidharth@heyimsid:~</text>
  <rect x="740" y="14" width="145" height="22" rx="11" fill="#161b22" stroke="#30363d"/>
  <circle cx="754" cy="25" r="3" fill="#7ee787"/>
  <text x="764" y="29" class="badge-text">PORTFOLIO MODE</text>

  <!-- SECTION 1: TOP PROFILE DUAL PANES -->
  <!-- Left Side ASCII Box -->
  <text x="35" y="68" class="cmd-text">&gt; <tspan fill="#e6edf3">loading</tspan> profile...</text>
  <rect x="35" y="80" width="370" height="380" class="subcard-bg"/>
  
  <!-- Corner Wireframe Brackets -->
  <path d="M 45 95 L 45 88 L 52 88" stroke="#30363d" stroke-width="1" fill="none"/>
  <path d="M 395 95 L 395 88 L 388 88" stroke="#30363d" stroke-width="1" fill="none"/>
  <path d="M 45 445 L 45 452 L 52 452" stroke="#30363d" stroke-width="1" fill="none"/>
  <path d="M 395 445 L 395 452 L 388 452" stroke="#30363d" stroke-width="1" fill="none"/>

  <text class="ascii-text" x="55" y="92">
<tspan x="55" dy="11">&#160;&#160;&#160;&#160;&#160;&#160;&#160;&#160;&#160;&#160;&#160;&#160;&#160;&#160;&#160;&#160;&#160;&#160;&#160;&#160;&#160;&#160;&#160;&#160;&#160;&#160;&#160;&#160;&#160;&#160;&#160;&#160;&#160;&#160;&#160;&#160;&#160;&#160;&#160;&#160;&#160;&#160;&#160;&#160;&#160;&#160;&#160;&#160;&#160;&#160;&#160;&#160;&#160;&#160;&#160;&#160;&#160;&#160;&#160;&#160;&#160;&#160;&#160;&#160;&#160;&#160;&#160;&#160;&#160;&#160;&#160;&#160;</tspan>
<tspan x="55" dy="11">&#160;&#160;&#160;&#160;&#160;&#160;&#160;&#160;&#160;&#160;&#160;&#160;&#160;&#160;&#160;&#160;&#160;&#160;&#160;&#160;&#160;&#160;&#160;&#160;&#160;&#160;&#160;&#160;&#160;&#160;&#160;&#160;&#160;&#160;&#160;&#160;&#160;&#160;&#160;&#160;&#160;&#160;&#160;&#160;&#160;&#160;&#160;&#160;&#160;&#160;&#160;&#160;&#160;&#160;&#160;&#160;&#160;&#160;&#160;&#160;&#160;&#160;&#160;&#160;&#160;&#160;&#160;&#160;&#160;&#160;&#160;&#160;</tspan>
<tspan x="55" dy="11">&#160;&#160;&#160;&#160;&#160;&#160;&#160;&#160;&#160;&#160;&#160;&#160;&#160;&#160;&#160;&#160;&#160;&#160;&#160;&#160;&#160;&#160;&#160;&#160;&#160;&#160;&#160;&#160;&#160;&#160;&#160;&#160;&#160;&#160;&#160;&#160;&#160;&#160;&#160;&#160;&#160;&#160;&#160;&#160;&#160;&#160;&#160;&#160;&#160;&#160;&#160;&#160;&#160;&#160;&#160;&#160;&#160;&#160;&#160;&#160;&#160;&#160;&#160;&#160;&#160;&#160;&#160;&#160;&#160;&#160;&#160;&#160;</tspan>
<tspan x="55" dy="11">&#160;&#160;&#160;&#160;&#160;&#160;&#160;&#160;&#160;&#160;&#160;&#160;&#160;&#160;&#160;&#160;&#160;&#160;&#160;&#160;&#160;&#160;&#160;&#160;&#160;&#160;&#160;&#160;&#160;&#160;&#160;&#160;&#160;&#160;&#160;&#160;&#160;&#160;&#160;&#160;&#160;&#160;&#160;&#160;&#160;&#160;&#160;&#160;&#160;&#160;&#160;&#160;&#160;&#160;&#160;&#160;&#160;&#160;&#160;&#160;&#160;&#160;&#160;&#160;&#160;&#160;&#160;&#160;&#160;&#160;&#160;&#160;</tspan>
<tspan x="55" dy="11">&#160;&#160;&#160;&#160;&#160;&#160;&#160;&#160;&#160;&#160;&#160;&#160;&#160;&#160;&#160;&#160;&#160;&#160;&#160;&#160;&#160;&#160;&#160;&#160;&#160;&#160;&#160;&#160;&#160;&#160;&#160;&#160;&#160;&#160;&#160;&#160;&#160;&#160;&#160;&#160;&#160;&#160;&#160;&#160;&#160;&#160;&#160;&#160;&#160;&#160;&#160;&#160;&#160;&#160;&#160;&#160;&#160;&#160;&#160;&#160;&#160;&#160;&#160;&#160;&#160;&#160;&#160;&#160;&#160;&#160;&#160;&#160;</tspan>
<tspan x="55" dy="11">&#160;&#160;&#160;&#160;&#160;&#160;&#160;&#160;&#160;&#160;&#160;&#160;&#160;&#160;&#160;&#160;&#160;&#160;&#160;&#160;&#160;&#160;&#160;&#160;&#160;&#160;&#160;&#160;&#160;&#160;&#160;&#160;&#160;&#160;&#160;&#160;&#160;&#160;&#160;&#160;&#160;&#160;&#160;&#160;&#160;&#160;&#160;&#160;&#160;&#160;&#160;&#160;&#160;&#160;&#160;&#160;&#160;&#160;&#160;&#160;&#160;&#160;&#160;&#160;&#160;&#160;&#160;&#160;&#160;&#160;&#160;&#160;</tspan>
<tspan x="55" dy="11">&#160;&#160;&#160;&#160;&#160;&#160;&#160;&#160;&#160;&#160;&#160;&#160;&#160;&#160;&#160;&#160;&#160;&#160;&#160;&#160;&#160;&#160;&#160;&#160;&#160;&#160;&#160;&#160;&#160;&#160;&#160;&#160;&#160;&#160;&#160;&#160;&#160;&#160;&#160;&#160;&#160;&#160;&#160;&#160;&#160;&#160;&#160;&#160;&#160;&#160;&#160;&#160;&#160;&#160;&#160;&#160;&#160;&#160;&#160;&#160;&#160;&#160;&#160;&#160;&#160;&#160;&#160;&#160;&#160;&#160;&#160;&#160;</tspan>
<tspan x="55" dy="11">&#160;&#160;&#160;&#160;&#160;&#160;&#160;&#160;&#160;&#160;&#160;&#160;&#160;&#160;&#160;&#160;&#160;&#160;&#160;&#160;&#160;&#160;&#160;&#160;&#160;&#160;&#160;&#160;&#160;&#160;&#160;&#160;&#160;&#160;&#160;&#160;&#160;&#160;&#160;&#160;&#160;&#160;&#160;&#160;&#160;&#160;&#160;&#160;&#160;&#160;&#160;&#160;&#160;&#160;&#160;&#160;&#160;&#160;&#160;&#160;&#160;&#160;&#160;&#160;&#160;&#160;&#160;&#160;&#160;&#160;&#160;&#160;</tspan>
<tspan x="55" dy="11">&#160;&#160;&#160;&#160;&#160;&#160;&#160;&#160;&#160;&#160;&#160;&#160;&#160;&#160;&#160;&#160;&#160;&#160;&#160;&#160;&#160;&#160;&#160;&#160;&#160;&#160;&#160;&#160;&#160;&#160;&#160;&#160;&#160;&#160;&#160;&#160;&#160;&#160;&#160;&#160;&#160;&#160;&#160;&#160;&#160;&#160;&#160;&#160;&#160;&#160;&#160;&#160;&#160;&#160;&#160;&#160;&#160;&#160;&#160;&#160;&#160;&#160;&#160;&#160;&#160;&#160;&#160;&#160;&#160;&#160;&#160;&#160;</tspan>
<tspan x="55" dy="11">&#160;&#160;&#160;&#160;&#160;&#160;&#160;&#160;&#160;&#160;&#160;&#160;&#160;&#160;&#160;&#160;&#160;&#160;&#160;&#160;............&#160;&#160;&#160;&#160;&#160;&#160;&#160;&#160;&#160;&#160;&#160;&#160;&#160;&#160;&#160;&#160;&#160;&#160;&#160;&#160;&#160;&#160;&#160;&#160;&#160;&#160;&#160;&#160;&#160;&#160;&#160;&#160;&#160;&#160;&#160;&#160;&#160;&#160;&#160;&#160;</tspan>
<tspan x="55" dy="11">&#160;&#160;&#160;&#160;&#160;&#160;&#160;&#160;&#160;&#160;&#160;&#160;&#160;&#160;&#160;&#160;...&#160;&#160;&#160;&#160;&#160;&#160;&#160;&#160;&#160;&#160;&#160;&#160;&#160;.......&#160;&#160;&#160;&#160;&#160;&#160;&#160;&#160;&#160;&#160;&#160;&#160;&#160;&#160;&#160;&#160;&#160;&#160;&#160;&#160;&#160;&#160;&#160;&#160;&#160;&#160;&#160;&#160;&#160;&#160;&#160;&#160;&#160;</tspan>
<tspan x="55" dy="11">&#160;&#160;&#160;&#160;&#160;&#160;&#160;&#160;&#160;&#160;&#160;&#160;&#160;&#160;&#160;.&#160;&#160;&#160;&#160;.-=-------:.&#160;&#160;&#160;&#160;&#160;&#160;&#160;....&#160;&#160;&#160;&#160;&#160;&#160;&#160;&#160;&#160;&#160;&#160;&#160;&#160;&#160;&#160;&#160;&#160;&#160;&#160;&#160;&#160;&#160;&#160;&#160;&#160;&#160;&#160;&#160;&#160;</tspan>
<tspan x="55" dy="11">&#160;&#160;&#160;&#160;&#160;&#160;&#160;&#160;&#160;&#160;&#160;&#160;&#160;&#160;.&#160;.-+#%@@@%%@@@@@%#*=-:..&#160;&#160;&#160;&#160;...&#160;&#160;&#160;&#160;&#160;&#160;&#160;&#160;&#160;&#160;&#160;&#160;&#160;&#160;&#160;&#160;&#160;&#160;&#160;&#160;&#160;&#160;&#160;&#160;&#160;&#160;</tspan>
<tspan x="55" dy="11">&#160;&#160;&#160;&#160;&#160;&#160;&#160;&#160;&#160;&#160;&#160;&#160;&#160;.&#160;.*@@@@@%%%#%@@@%@@@@@@@%##+.&#160;&#160;&#160;.&#160;&#160;&#160;&#160;&#160;&#160;&#160;&#160;&#160;&#160;&#160;&#160;&#160;&#160;&#160;&#160;&#160;&#160;&#160;&#160;&#160;&#160;&#160;&#160;&#160;</tspan>
<tspan x="55" dy="11">&#160;&#160;&#160;&#160;&#160;&#160;&#160;&#160;&#160;&#160;&#160;&#160;.&#160;:@@@@@@@@%@%@@@@@%%@@@@@@@@@%+:.&#160;.&#160;&#160;&#160;&#160;&#160;&#160;&#160;&#160;&#160;&#160;&#160;&#160;&#160;&#160;&#160;&#160;&#160;&#160;&#160;&#160;&#160;&#160;&#160;&#160;</tspan>
<tspan x="55" dy="11">&#160;&#160;&#160;&#160;&#160;&#160;&#160;&#160;&#160;&#160;&#160;.&#160;:%@@@@@@@@@@%@@@@@@@@@@@@@@@@@@@%:&#160;.&#160;&#160;&#160;&#160;&#160;&#160;&#160;&#160;&#160;&#160;&#160;&#160;&#160;&#160;&#160;&#160;&#160;&#160;&#160;&#160;&#160;&#160;&#160;</tspan>
<tspan x="55" dy="11">&#160;&#160;&#160;&#160;&#160;&#160;&#160;&#160;&#160;&#160;.&#160;+@@@@@@@@@%%%@@@@@@@@@@@@@@@@@@@@@@:..&#160;&#160;&#160;&#160;&#160;&#160;&#160;&#160;&#160;&#160;&#160;&#160;&#160;&#160;&#160;&#160;&#160;&#160;&#160;&#160;&#160;&#160;</tspan>
<tspan x="55" dy="11">&#160;&#160;&#160;&#160;&#160;&#160;&#160;&#160;&#160;.&#160;:@@@@@@@@@@@@%%#####%#*%%@@%@@@@@@@%.&#160;.&#160;&#160;&#160;&#160;&#160;&#160;&#160;&#160;&#160;&#160;&#160;&#160;&#160;&#160;&#160;&#160;&#160;&#160;&#160;&#160;&#160;&#160;</tspan>
<tspan x="55" dy="11">&#160;&#160;&#160;&#160;&#160;&#160;&#160;&#160;&#160;.&#160;+@@@@@@@@@@%*+-...:*%###+==+@@@@%@@*..&#160;&#160;&#160;&#160;&#160;&#160;&#160;&#160;&#160;&#160;&#160;&#160;&#160;&#160;&#160;&#160;&#160;&#160;&#160;&#160;&#160;&#160;&#160;</tspan>
<tspan x="55" dy="11">&#160;&#160;&#160;&#160;&#160;&#160;&#160;&#160;&#160;..:%@@@@@@@@%##**++=%@@@@@@#**+%%+-#@+:..&#160;&#160;&#160;&#160;&#160;&#160;&#160;&#160;&#160;&#160;&#160;&#160;&#160;&#160;&#160;&#160;&#160;&#160;&#160;&#160;&#160;&#160;</tspan>
<tspan x="55" dy="11">&#160;&#160;&#160;&#160;&#160;&#160;&#160;&#160;&#160;&#160;.&#160;:%@@@@@%@@@@@@@*:=%@@@@@@#=-**.:*=&#160;&#160;&#160;&#160;&#160;&#160;&#160;&#160;&#160;&#160;&#160;&#160;&#160;&#160;&#160;&#160;&#160;&#160;&#160;&#160;&#160;&#160;&#160;&#160;&#160;&#160;</tspan>
<tspan x="55" dy="11">&#160;&#160;&#160;&#160;&#160;&#160;&#160;&#160;&#160;&#160;&#160;.&#160;.+@@@@@@@@@@@@*.&#160;:=##*=-..-*#=-*:..&#160;&#160;&#160;&#160;&#160;&#160;&#160;&#160;&#160;&#160;&#160;&#160;&#160;&#160;&#160;&#160;&#160;&#160;&#160;&#160;&#160;&#160;&#160;&#160;</tspan>
<tspan x="55" dy="11">&#160;&#160;&#160;&#160;&#160;&#160;&#160;&#160;&#160;&#160;&#160;&#160;.&#160;&#160;.+@@@@@%%*###=::--.:-..:=#%-*-&#160;.&#160;&#160;&#160;&#160;&#160;&#160;&#160;&#160;&#160;&#160;&#160;&#160;&#160;&#160;&#160;&#160;&#160;&#160;&#160;&#160;&#160;&#160;&#160;&#160;&#160;</tspan>
<tspan x="55" dy="11">&#160;&#160;&#160;&#160;&#160;&#160;&#160;&#160;&#160;&#160;&#160;&#160;&#160;..&#160;&#160;-@@%*-::+#@%+++*+#@#:-*%@#:&#160;.....&#160;&#160;&#160;&#160;&#160;&#160;&#160;&#160;&#160;&#160;&#160;&#160;&#160;&#160;&#160;&#160;&#160;&#160;&#160;&#160;&#160;&#160;</tspan>
<tspan x="55" dy="11">&#160;&#160;&#160;&#160;&#160;&#160;&#160;&#160;&#160;&#160;&#160;&#160;&#160;&#160;&#160;..&#160;:#@@#=+%@%*==--==-+-+%@%%.&#160;&#160;&#160;&#160;&#160;&#160;..&#160;&#160;&#160;&#160;&#160;&#160;&#160;&#160;&#160;&#160;&#160;&#160;&#160;&#160;&#160;&#160;&#160;&#160;&#160;&#160;</tspan>
<tspan x="55" dy="11">&#160;&#160;&#160;&#160;&#160;&#160;&#160;&#160;&#160;&#160;&#160;&#160;&#160;&#160;&#160;&#160;&#160;.&#160;&#160;-#@@#=*%*+++:..-#%@@%=+#**+=-.&#160;&#160;.........&#160;&#160;&#160;&#160;&#160;&#160;&#160;&#160;&#160;&#160;&#160;</tspan>
<tspan x="55" dy="11">&#160;&#160;&#160;&#160;&#160;&#160;&#160;&#160;&#160;&#160;&#160;&#160;&#160;&#160;&#160;&#160;&#160;&#160;..&#160;&#160;=#@@%#*--:..:#@@%+---*#@@###=.&#160;&#160;&#160;&#160;&#160;&#160;&#160;&#160;&#160;&#160;.........&#160;</tspan>
<tspan x="55" dy="11">&#160;&#160;&#160;&#160;&#160;&#160;&#160;&#160;&#160;&#160;&#160;&#160;&#160;&#160;&#160;&#160;&#160;&#160;&#160;&#160;..&#160;&#160;:%@@@%#*#%%%*+-:..:=*#@@@##++-=-:::...&#160;&#160;&#160;&#160;&#160;&#160;&#160;&#160;&#160;.</tspan>
<tspan x="55" dy="11">&#160;&#160;&#160;&#160;&#160;&#160;&#160;&#160;&#160;&#160;&#160;&#160;&#160;&#160;&#160;&#160;&#160;....&#160;&#160;.=%@@@@@@@*+=-:.....:-+@@@*====*+=-=+=+====-:::.&#160;</tspan>
<tspan x="55" dy="11">&#160;&#160;&#160;&#160;&#160;&#160;&#160;&#160;&#160;&#160;&#160;&#160;&#160;&#160;...&#160;&#160;&#160;&#160;.=##%@@@@@@#=:...::.....#@@@*.-**+-:...:+%#+*%%*+++</tspan>
<tspan x="55" dy="11">&#160;&#160;&#160;&#160;&#160;&#160;&#160;&#160;&#160;&#160;&#160;...&#160;&#160;&#160;.:=*%%=:=@@@@#%%*=-:-------+%@@=:-=@@#***=*#@@@%%@@%+*=</tspan>
<tspan x="55" dy="11">&#160;&#160;&#160;&#160;&#160;&#160;&#160;&#160;&#160;..&#160;&#160;&#160;:=++*%#-:==.:@@@@#+**+++*--*#%@@@+=-*@@+-:-+#@@@@###@@#+=-</tspan>
<tspan x="55" dy="11">&#160;&#160;&#160;&#160;&#160;&#160;&#160;&#160;.&#160;&#160;.-*%###%-&#160;&#160;..:-=*%%*%%=::-*%-*@@@@#=*=+#@#==+*#%#%@@%#@@%++==</tspan>
<tspan x="55" dy="11">&#160;&#160;&#160;&#160;&#160;&#160;&#160;.&#160;.=*#@%+*#@*+=++#%*+*++*#=..:*%@@@@@++#=+*#@%##+-:=-#@#+=%#=--.:</tspan>
<tspan x="55" dy="11">&#160;&#160;&#160;&#160;&#160;&#160;.&#160;:#*+*@%%@@%@@@@@@%%%+-=*+--=+*%@@@#-+#*--=#%+:.&#160;&#160;:-#@#=-*%+:-...</tspan>
<tspan x="55" dy="11">&#160;&#160;&#160;&#160;&#160;.&#160;-@*-==##-**==++%%%%%%#+--++==*%@@%-:=:-=-*%+:.&#160;..-+*%%+++%%=--.:.</tspan>
<tspan x="55" dy="11">&#160;&#160;&#160;&#160;&#160;..#@=..:=%*+-.::.-%@+.::==***#+#@@*:-::+#*#@#-+-=*=##%@@%%%@@*#+---</tspan>
<tspan x="55" dy="11">&#160;&#160;&#160;&#160;.&#160;:###.&#160;:+#@#-.:-.:+@@#+:::++%@@@@*=#++%@%#%@%#*=**+#*@@@%%@@%%@#%+#</tspan>
<tspan x="55" dy="11">&#160;&#160;&#160;&#160;.&#160;=*+#*.:#@@@*=+*=+#@%@*::-++*@@@##%+*%@**%@%+=-+**++===+++###*++#%@</tspan>
<tspan x="55" dy="11">&#160;&#160;&#160;&#160;.&#160;+##=%+:+@%%#-:::-*@%@#=+%++*@%+*@*=+#@#%@%***%%+--:.....:=+*%@@%@@</tspan>
<tspan x="55" dy="11">&#160;&#160;&#160;&#160;.&#160;:@%*=#--*@#-..-==*#@@#**#-::#:.:*-::*@@*-+#@@%**=:::::::--+%@@#%@@</tspan>
<tspan x="55" dy="11">&#160;&#160;&#160;&#160;&#160;.&#160;=#*#*+#%=#+-**===*##*##**-:+:.+*:.-@%@%*+@*=--=+*+==.-++*##+=+#@@</tspan>
<tspan x="55" dy="11">&#160;&#160;&#160;&#160;&#160;&#160;.&#160;:*%%%+=@+*@@*::-:=*@++=*=.=-:*+:.+#%@+##*++*++*##*#**#%%*==+#@#%</tspan>
<tspan x="55" dy="11">&#160;&#160;&#160;&#160;&#160;&#160;&#160;.&#160;&#160;++%%-*%%@@%-:-++*%##@%+-+++@@+.#+#@+-+#@@@##%%@@@@*==--.:-=-*%</tspan>
<tspan x="55" dy="11">&#160;&#160;&#160;&#160;&#160;&#160;&#160;&#160;.&#160;-*+@%+@@*%%=+=*@#+#%@%%+*##@@*=#*%@+=###*%%##%%@@%*+=:.::.:*##</tspan>
  </text>
  <text x="160" y="455" class="title-bar-text" font-size="11">-- ascii portrait v1.0 --</text>

  <!-- Right Side Whoami Box -->
  <text x="435" y="68" class="cmd-text">&gt; whoami</text>
  <rect x="735" y="52" width="130" height="24" rx="6" fill="#161b22" stroke="#58a6ff"/>
  <text x="750" y="68" class="badge-text" fill="#58a6ff">ALWAYS LEARNING</text>

  <rect x="435" y="80" width="430" height="380" class="subcard-bg"/>
  <text x="460" y="130" class="name-heading">Sidharth P V</text>
  <text x="460" y="155" class="sub-heading">Final Year CSE Student</text>

  <g transform="translate(460, 190)">
    <text x="0" y="0" class="label-text">📍 Location</text> <text x="140" y="0" class="value-white">: India</text>
    <text x="0" y="32" class="label-text">⚡ Focus</text>    <text x="140" y="32" class="value-text">: Artificial Intelligence</text>
                                                         <text x="153" y="48" class="value-text">Cybersecurity</text>
    <text x="0" y="80" class="label-text">⚙️ Learning</text> <text x="140" y="80" class="value-text">: ML, Computer Vision, LLMs</text>
                                                         <text x="153" y="96" class="value-text">Full Stack Development</text>
    <text x="0" y="128" class="label-text">🕒 Building</text> <text x="140" y="128" class="value-text">: Explainable AI Scam Detection</text>
                                                         <text x="153" y="144" class="value-text">System Using LLMs</text>
    <text x="0" y="176" class="label-text">💡 Interests</text><text x="140" y="176" class="value-text">: AI Research, Problem Solving,</text>
                                                         <text x="153" y="192" class="value-text">System Design</text>
    <text x="0" y="224" class="label-text">🎯 Goal</text>      <text x="140" y="224" class="value-text">: Building impactful AI products</text>
                                                         <text x="153" y="240" class="value-text">that make a difference</text>
  </g>
  <text x="445" y="455" class="title-bar-text" font-size="11">&gt; life.exe --mission "learn • build • impact"</text>

  <!-- SECTION 2: CONTRIBUTION GRAPH -->
  <rect x="35" y="485" width="830" height="150" class="subcard-bg"/>
  <text x="50" y="510" class="cmd-text">&gt; git log <tspan class="cmd-args">---oneline ---graph --all ---since=53.weeks</tspan></text>
  <text x="760" y="510" class="title-bar-text" font-size="11">last 53 weeks</text>
  
  <g transform="translate(75, 525)">
    <rect x="0" y="0" width="10" height="10" rx="2" fill="#39d353" /><rect x="0" y="14" width="10" height="10" rx="2" fill="#2ea043" /><rect x="0" y="28" width="10" height="10" rx="2" fill="#2ea043" /><rect x="0" y="42" width="10" height="10" rx="2" fill="#0e4429" /><rect x="0" y="56" width="10" height="10" rx="2" fill="#2ea043" /><rect x="0" y="70" width="10" height="10" rx="2" fill="#161b22" /><rect x="0" y="84" width="10" height="10" rx="2" fill="#2ea043" /><rect x="14" y="0" width="10" height="10" rx="2" fill="#39d353" /><rect x="14" y="14" width="10" height="10" rx="2" fill="#161b22" /><rect x="14" y="28" width="10" height="10" rx="2" fill="#2ea043" /><rect x="14" y="42" width="10" height="10" rx="2" fill="#161b22" /><rect x="14" y="56" width="10" height="10" rx="2" fill="#2ea043" /><rect x="14" y="70" width="10" height="10" rx="2" fill="#2ea043" /><rect x="14" y="84" width="10" height="10" rx="2" fill="#161b22" /><rect x="28" y="0" width="10" height="10" rx="2" fill="#39d353" /><rect x="28" y="14" width="10" height="10" rx="2" fill="#0e4429" /><rect x="28" y="28" width="10" height="10" rx="2" fill="#2ea043" /><rect x="28" y="42" width="10" height="10" rx="2" fill="#2ea043" /><rect x="28" y="56" width="10" height="10" rx="2" fill="#0e4429" /><rect x="28" y="70" width="10" height="10" rx="2" fill="#2ea043" /><rect x="28" y="84" width="10" height="10" rx="2" fill="#161b22" /><rect x="42" y="0" width="10" height="10" rx="2" fill="#39d353" /><rect x="42" y="14" width="10" height="10" rx="2" fill="#2ea043" /><rect x="42" y="28" width="10" height="10" rx="2" fill="#161b22" /><rect x="42" y="42" width="10" height="10" rx="2" fill="#2ea043" /><rect x="42" y="56" width="10" height="10" rx="2" fill="#161b22" /><rect x="42" y="70" width="10" height="10" rx="2" fill="#2ea043" /><rect x="42" y="84" width="10" height="10" rx="2" fill="#2ea043" /><rect x="56" y="0" width="10" height="10" rx="2" fill="#39d353" /><rect x="56" y="14" width="10" height="10" rx="2" fill="#2ea043" /><rect x="56" y="28" width="10" height="10" rx="2" fill="#0e4429" /><rect x="56" y="42" width="10" height="10" rx="2" fill="#2ea043" /><rect x="56" y="56" width="10" height="10" rx="2" fill="#2ea043" /><rect x="56" y="70" width="10" height="10" rx="2" fill="#0e4429" /><rect x="56" y="84" width="10" height="10" rx="2" fill="#2ea043" /><rect x="70" y="0" width="10" height="10" rx="2" fill="#39d353" /><rect x="70" y="14" width="10" height="10" rx="2" fill="#2ea043" /><rect x="70" y="28" width="10" height="10" rx="2" fill="#2ea043" /><rect x="70" y="42" width="10" height="10" rx="2" fill="#161b22" /><rect x="70" y="56" width="10" height="10" rx="2" fill="#2ea043" /><rect x="70" y="70" width="10" height="10" rx="2" fill="#161b22" /><rect x="70" y="84" width="10" height="10" rx="2" fill="#2ea043" /><rect x="84" y="0" width="10" height="10" rx="2" fill="#39d353" /><rect x="84" y="14" width="10" height="10" rx="2" fill="#161b22" /><rect x="84" y="28" width="10" height="10" rx="2" fill="#2ea043" /><rect x="84" y="42" width="10" height="10" rx="2" fill="#0e4429" /><rect x="84" y="56" width="10" height="10" rx="2" fill="#2ea043" /><rect x="84" y="70" width="10" height="10" rx="2" fill="#2ea043" /><rect x="84" y="84" width="10" height="10" rx="2" fill="#0e4429" /><rect x="98" y="0" width="10" height="10" rx="2" fill="#39d353" /><rect x="98" y="14" width="10" height="10" rx="2" fill="#161b22" /><rect x="98" y="28" width="10" height="10" rx="2" fill="#2ea043" /><rect x="98" y="42" width="10" height="10" rx="2" fill="#2ea043" /><rect x="98" y="56" width="10" height="10" rx="2" fill="#161b22" /><rect x="98" y="70" width="10" height="10" rx="2" fill="#2ea043" /><rect x="98" y="84" width="10" height="10" rx="2" fill="#161b22" /><rect x="112" y="0" width="10" height="10" rx="2" fill="#39d353" /><rect x="112" y="14" width="10" height="10" rx="2" fill="#2ea043" /><rect x="112" y="28" width="10" height="10" rx="2" fill="#161b22" /><rect x="112" y="42" width="10" height="10" rx="2" fill="#2ea043" /><rect x="112" y="56" width="10" height="10" rx="2" fill="#0e4429" /><rect x="112" y="70" width="10" height="10" rx="2" fill="#2ea043" /><rect x="112" y="84" width="10" height="10" rx="2" fill="#2ea043" /><rect x="126" y="0" width="10" height="10" rx="2" fill="#39d353" /><rect x="126" y="14" width="10" height="10" rx="2" fill="#2ea043" /><rect x="126" y="28" width="10" height="10" rx="2" fill="#161b22" /><rect x="126" y="42" width="10" height="10" rx="2" fill="#2ea043" /><rect x="126" y="56" width="10" height="10" rx="2" fill="#2ea043" /><rect x="126" y="70" width="10" height="10" rx="2" fill="#161b22" /><rect x="126" y="84" width="10" height="10" rx="2" fill="#2ea043" /><rect x="140" y="0" width="10" height="10" rx="2" fill="#39d353" /><rect x="140" y="14" width="10" height="10" rx="2" fill="#2ea043" /><rect x="140" y="28" width="10" height="10" rx="2" fill="#2ea043" /><rect x="140" y="42" width="10" height="10" rx="2" fill="#161b22" /><rect x="140" y="56" width="10" height="10" rx="2" fill="#2ea043" /><rect x="140" y="70" width="10" height="10" rx="2" fill="#0e4429" /><rect x="140" y="84" width="10" height="10" rx="2" fill="#2ea043" /><rect x="154" y="0" width="10" height="10" rx="2" fill="#39d353" /><rect x="154" y="14" width="10" height="10" rx="2" fill="#0e4429" /><rect x="154" y="28" width="10" height="10" rx="2" fill="#2ea043" /><rect x="154" y="42" width="10" height="10" rx="2" fill="#161b22" /><rect x="154" y="56" width="10" height="10" rx="2" fill="#2ea043" /><rect x="154" y="70" width="10" height="10" rx="2" fill="#2ea043" /><rect x="154" y="84" width="10" height="10" rx="2" fill="#161b22" /><rect x="168" y="0" width="10" height="10" rx="2" fill="#39d353" /><rect x="168" y="14" width="10" height="10" rx="2" fill="#161b22" /><rect x="168" y="28" width="10" height="10" rx="2" fill="#2ea043" /><rect x="168" y="42" width="10" height="10" rx="2" fill="#2ea043" /><rect x="168" y="56" width="10" height="10" rx="2" fill="#161b22" /><rect x="168" y="70" width="10" height="10" rx="2" fill="#2ea043" /><rect x="168" y="84" width="10" height="10" rx="2" fill="#0e4429" /><rect x="182" y="0" width="10" height="10" rx="2" fill="#39d353" /><rect x="182" y="14" width="10" height="10" rx="2" fill="#2ea043" /><rect x="182" y="28" width="10" height="10" rx="2" fill="#0e4429" /><rect x="182" y="42" width="10" height="10" rx="2" fill="#2ea043" /><rect x="182" y="56" width="10" height="10" rx="2" fill="#161b22" /><rect x="182" y="70" width="10" height="10" rx="2" fill="#2ea043" /><rect x="182" y="84" width="10" height="10" rx="2" fill="#2ea043" /><rect x="196" y="0" width="10" height="10" rx="2" fill="#39d353" /><rect x="196" y="14" width="10" height="10" rx="2" fill="#2ea043" /><rect x="196" y="28" width="10" height="10" rx="2" fill="#161b22" /><rect x="196" y="42" width="10" height="10" rx="2" fill="#2ea043" /><rect x="196" y="56" width="10" height="10" rx="2" fill="#2ea043" /><rect x="196" y="70" width="10" height="10" rx="2" fill="#161b22" /><rect x="196" y="84" width="10" height="10" rx="2" fill="#2ea043" /><rect x="210" y="0" width="10" height="10" rx="2" fill="#39d353" /><rect x="210" y="14" width="10" height="10" rx="2" fill="#2ea043" /><rect x="210" y="28" width="10" height="10" rx="2" fill="#2ea043" /><rect x="210" y="42" width="10" height="10" rx="2" fill="#0e4429" /><rect x="210" y="56" width="10" height="10" rx="2" fill="#2ea043" /><rect x="210" y="70" width="10" height="10" rx="2" fill="#161b22" /><rect x="210" y="84" width="10" height="10" rx="2" fill="#2ea043" /><rect x="224" y="0" width="10" height="10" rx="2" fill="#39d353" /><rect x="224" y="14" width="10" height="10" rx="2" fill="#161b22" /><rect x="224" y="28" width="10" height="10" rx="2" fill="#2ea043" /><rect x="224" y="42" width="10" height="10" rx="2" fill="#161b22" /><rect x="224" y="56" width="10" height="10" rx="2" fill="#2ea043" /><rect x="224" y="70" width="10" height="10" rx="2" fill="#2ea043" /><rect x="224" y="84" width="10" height="10" rx="2" fill="#161b22" /><rect x="238" y="0" width="10" height="10" rx="2" fill="#39d353" /><rect x="238" y="14" width="10" height="10" rx="2" fill="#0e4429" /><rect x="238" y="28" width="10" height="10" rx="2" fill="#2ea043" /><rect x="238" y="42" width="10" height="10" rx="2" fill="#2ea043" /><rect x="238" y="56" width="10" height="10" rx="2" fill="#0e4429" /><rect x="238" y="70" width="10" height="10" rx="2" fill="#2ea043" /><rect x="238" y="84" width="10" height="10" rx="2" fill="#161b22" /><rect x="252" y="0" width="10" height="10" rx="2" fill="#39d353" /><rect x="252" y="14" width="10" height="10" rx="2" fill="#2ea043" /><rect x="252" y="28" width="10" height="10" rx="2" fill="#161b22" /><rect x="252" y="42" width="10" height="10" rx="2" fill="#2ea043" /><rect x="252" y="56" width="10" height="10" rx="2" fill="#161b22" /><rect x="252" y="70" width="10" height="10" rx="2" fill="#2ea043" /><rect x="252" y="84" width="10" height="10" rx="2" fill="#2ea043" /><rect x="266" y="0" width="10" height="10" rx="2" fill="#39d353" /><rect x="266" y="14" width="10" height="10" rx="2" fill="#2ea043" /><rect x="266" y="28" width="10" height="10" rx="2" fill="#0e4429" /><rect x="266" y="42" width="10" height="10" rx="2" fill="#2ea043" /><rect x="266" y="56" width="10" height="10" rx="2" fill="#2ea043" /><rect x="266" y="70" width="10" height="10" rx="2" fill="#0e4429" /><rect x="266" y="84" width="10" height="10" rx="2" fill="#2ea043" /><rect x="280" y="0" width="10" height="10" rx="2" fill="#39d353" /><rect x="280" y="14" width="10" height="10" rx="2" fill="#2ea043" /><rect x="280" y="28" width="10" height="10" rx="2" fill="#2ea043" /><rect x="280" y="42" width="10" height="10" rx="2" fill="#161b22" /><rect x="280" y="56" width="10" height="10" rx="2" fill="#2ea043" /><rect x="280" y="70" width="10" height="10" rx="2" fill="#161b22" /><rect x="280" y="84" width="10" height="10" rx="2" fill="#2ea043" /><rect x="294" y="0" width="10" height="10" rx="2" fill="#39d353" /><rect x="294" y="14" width="10" height="10" rx="2" fill="#161b22" /><rect x="294" y="28" width="10" height="10" rx="2" fill="#2ea043" /><rect x="294" y="42" width="10" height="10" rx="2" fill="#0e4429" /><rect x="294" y="56" width="10" height="10" rx="2" fill="#2ea043" /><rect x="294" y="70" width="10" height="10" rx="2" fill="#2ea043" /><rect x="294" y="84" width="10" height="10" rx="2" fill="#0e4429" /><rect x="308" y="0" width="10" height="10" rx="2" fill="#39d353" /><rect x="308" y="14" width="10" height="10" rx="2" fill="#161b22" /><rect x="308" y="28" width="10" height="10" rx="2" fill="#2ea043" /><rect x="308" y="42" width="10" height="10" rx="2" fill="#2ea043" /><rect x="308" y="56" width="10" height="10" rx="2" fill="#161b22" /><rect x="308" y="70" width="10" height="10" rx="2" fill="#2ea043" /><rect x="308" y="84" width="10" height="10" rx="2" fill="#161b22" /><rect x="322" y="0" width="10" height="10" rx="2" fill="#39d353" /><rect x="322" y="14" width="10" height="10" rx="2" fill="#2ea043" /><rect x="322" y="28" width="10" height="10" rx="2" fill="#161b22" /><rect x="322" y="42" width="10" height="10" rx="2" fill="#2ea043" /><rect x="322" y="56" width="10" height="10" rx="2" fill="#0e4429" /><rect x="322" y="70" width="10" height="10" rx="2" fill="#2ea043" /><rect x="322" y="84" width="10" height="10" rx="2" fill="#2ea043" /><rect x="336" y="0" width="10" height="10" rx="2" fill="#39d353" /><rect x="336" y="14" width="10" height="10" rx="2" fill="#2ea043" /><rect x="336" y="28" width="10" height="10" rx="2" fill="#161b22" /><rect x="336" y="42" width="10" height="10" rx="2" fill="#2ea043" /><rect x="336" y="56" width="10" height="10" rx="2" fill="#2ea043" /><rect x="336" y="70" width="10" height="10" rx="2" fill="#161b22" /><rect x="336" y="84" width="10" height="10" rx="2" fill="#2ea043" /><rect x="350" y="0" width="10" height="10" rx="2" fill="#39d353" /><rect x="350" y="14" width="10" height="10" rx="2" fill="#2ea043" /><rect x="350" y="28" width="10" height="10" rx="2" fill="#2ea043" /><rect x="350" y="42" width="10" height="10" rx="2" fill="#161b22" /><rect x="350" y="56" width="10" height="10" rx="2" fill="#2ea043" /><rect x="350" y="70" width="10" height="10" rx="2" fill="#0e4429" /><rect x="350" y="84" width="10" height="10" rx="2" fill="#2ea043" /><rect x="364" y="0" width="10" height="10" rx="2" fill="#39d353" /><rect x="364" y="14" width="10" height="10" rx="2" fill="#0e4429" /><rect x="364" y="28" width="10" height="10" rx="2" fill="#2ea043" /><rect x="364" y="42" width="10" height="10" rx="2" fill="#161b22" /><rect x="364" y="56" width="10" height="10" rx="2" fill="#2ea043" /><rect x="364" y="70" width="10" height="10" rx="2" fill="#2ea043" /><rect x="364" y="84" width="10" height="10" rx="2" fill="#161b22" /><rect x="378" y="0" width="10" height="10" rx="2" fill="#39d353" /><rect x="378" y="14" width="10" height="10" rx="2" fill="#161b22" /><rect x="378" y="28" width="10" height="10" rx="2" fill="#2ea043" /><rect x="378" y="42" width="10" height="10" rx="2" fill="#2ea043" /><rect x="378" y="56" width="10" height="10" rx="2" fill="#161b22" /><rect x="378" y="70" width="10" height="10" rx="2" fill="#2ea043" /><rect x="378" y="84" width="10" height="10" rx="2" fill="#0e4429" /><rect x="392" y="0" width="10" height="10" rx="2" fill="#39d353" /><rect x="392" y="14" width="10" height="10" rx="2" fill="#2ea043" /><rect x="392" y="28" width="10" height="10" rx="2" fill="#0e4429" /><rect x="392" y="42" width="10" height="10" rx="2" fill="#2ea043" /><rect x="392" y="56" width="10" height="10" rx="2" fill="#161b22" /><rect x="392" y="70" width="10" height="10" rx="2" fill="#2ea043" /><rect x="392" y="84" width="10" height="10" rx="2" fill="#2ea043" /><rect x="406" y="0" width="10" height="10" rx="2" fill="#39d353" /><rect x="406" y="14" width="10" height="10" rx="2" fill="#2ea043" /><rect x="406" y="28" width="10" height="10" rx="2" fill="#161b22" /><rect x="406" y="42" width="10" height="10" rx="2" fill="#2ea043" /><rect x="406" y="56" width="10" height="10" rx="2" fill="#2ea043" /><rect x="406" y="70" width="10" height="10" rx="2" fill="#161b22" /><rect x="406" y="84" width="10" height="10" rx="2" fill="#2ea043" /><rect x="420" y="0" width="10" height="10" rx="2" fill="#39d353" /><rect x="420" y="14" width="10" height="10" rx="2" fill="#2ea043" /><rect x="420" y="28" width="10" height="10" rx="2" fill="#2ea043" /><rect x="420" y="42" width="10" height="10" rx="2" fill="#0e4429" /><rect x="420" y="56" width="10" height="10" rx="2" fill="#2ea043" /><rect x="420" y="70" width="10" height="10" rx="2" fill="#161b22" /><rect x="420" y="84" width="10" height="10" rx="2" fill="#2ea043" /><rect x="434" y="0" width="10" height="10" rx="2" fill="#39d353" /><rect x="434" y="14" width="10" height="10" rx="2" fill="#161b22" /><rect x="434" y="28" width="10" height="10" rx="2" fill="#2ea043" /><rect x="434" y="42" width="10" height="10" rx="2" fill="#161b22" /><rect x="434" y="56" width="10" height="10" rx="2" fill="#2ea043" /><rect x="434" y="70" width="10" height="10" rx="2" fill="#2ea043" /><rect x="434" y="84" width="10" height="10" rx="2" fill="#161b22" /><rect x="448" y="0" width="10" height="10" rx="2" fill="#39d353" /><rect x="448" y="14" width="10" height="10" rx="2" fill="#0e4429" /><rect x="448" y="28" width="10" height="10" rx="2" fill="#2ea043" /><rect x="448" y="42" width="10" height="10" rx="2" fill="#2ea043" /><rect x="448" y="56" width="10" height="10" rx="2" fill="#0e4429" /><rect x="448" y="70" width="10" height="10" rx="2" fill="#2ea043" /><rect x="448" y="84" width="10" height="10" rx="2" fill="#161b22" /><rect x="462" y="0" width="10" height="10" rx="2" fill="#39d353" /><rect x="462" y="14" width="10" height="10" rx="2" fill="#2ea043" /><rect x="462" y="28" width="10" height="10" rx="2" fill="#161b22" /><rect x="462" y="42" width="10" height="10" rx="2" fill="#2ea043" /><rect x="462" y="56" width="10" height="10" rx="2" fill="#161b22" /><rect x="462" y="70" width="10" height="10" rx="2" fill="#2ea043" /><rect x="462" y="84" width="10" height="10" rx="2" fill="#2ea043" /><rect x="476" y="0" width="10" height="10" rx="2" fill="#39d353" /><rect x="476" y="14" width="10" height="10" rx="2" fill="#2ea043" /><rect x="476" y="28" width="10" height="10" rx="2" fill="#0e4429" /><rect x="476" y="42" width="10" height="10" rx="2" fill="#2ea043" /><rect x="476" y="56" width="10" height="10" rx="2" fill="#2ea043" /><rect x="476" y="70" width="10" height="10" rx="2" fill="#0e4429" /><rect x="476" y="84" width="10" height="10" rx="2" fill="#2ea043" /><rect x="490" y="0" width="10" height="10" rx="2" fill="#39d353" /><rect x="490" y="14" width="10" height="10" rx="2" fill="#2ea043" /><rect x="490" y="28" width="10" height="10" rx="2" fill="#2ea043" /><rect x="490" y="42" width="10" height="10" rx="2" fill="#161b22" /><rect x="490" y="56" width="10" height="10" rx="2" fill="#2ea043" /><rect x="490" y="70" width="10" height="10" rx="2" fill="#161b22" /><rect x="490" y="84" width="10" height="10" rx="2" fill="#2ea043" /><rect x="504" y="0" width="10" height="10" rx="2" fill="#39d353" /><rect x="504" y="14" width="10" height="10" rx="2" fill="#161b22" /><rect x="504" y="28" width="10" height="10" rx="2" fill="#2ea043" /><rect x="504" y="42" width="10" height="10" rx="2" fill="#0e4429" /><rect x="504" y="56" width="10" height="10" rx="2" fill="#2ea043" /><rect x="504" y="70" width="10" height="10" rx="2" fill="#2ea043" /><rect x="504" y="84" width="10" height="10" rx="2" fill="#0e4429" /><rect x="518" y="0" width="10" height="10" rx="2" fill="#39d353" /><rect x="518" y="14" width="10" height="10" rx="2" fill="#161b22" /><rect x="518" y="28" width="10" height="10" rx="2" fill="#2ea043" /><rect x="518" y="42" width="10" height="10" rx="2" fill="#2ea043" /><rect x="518" y="56" width="10" height="10" rx="2" fill="#161b22" /><rect x="518" y="70" width="10" height="10" rx="2" fill="#2ea043" /><rect x="518" y="84" width="10" height="10" rx="2" fill="#161b22" /><rect x="532" y="0" width="10" height="10" rx="2" fill="#39d353" /><rect x="532" y="14" width="10" height="10" rx="2" fill="#2ea043" /><rect x="532" y="28" width="10" height="10" rx="2" fill="#161b22" /><rect x="532" y="42" width="10" height="10" rx="2" fill="#2ea043" /><rect x="532" y="56" width="10" height="10" rx="2" fill="#0e4429" /><rect x="532" y="70" width="10" height="10" rx="2" fill="#2ea043" /><rect x="532" y="84" width="10" height="10" rx="2" fill="#2ea043" /><rect x="546" y="0" width="10" height="10" rx="2" fill="#39d353" /><rect x="546" y="14" width="10" height="10" rx="2" fill="#2ea043" /><rect x="546" y="28" width="10" height="10" rx="2" fill="#161b22" /><rect x="546" y="42" width="10" height="10" rx="2" fill="#2ea043" /><rect x="546" y="56" width="10" height="10" rx="2" fill="#2ea043" /><rect x="546" y="70" width="10" height="10" rx="2" fill="#161b22" /><rect x="546" y="84" width="10" height="10" rx="2" fill="#2ea043" /><rect x="560" y="0" width="10" height="10" rx="2" fill="#39d353" /><rect x="560" y="14" width="10" height="10" rx="2" fill="#2ea043" /><rect x="560" y="28" width="10" height="10" rx="2" fill="#2ea043" /><rect x="560" y="42" width="10" height="10" rx="2" fill="#161b22" /><rect x="560" y="56" width="10" height="10" rx="2" fill="#2ea043" /><rect x="560" y="70" width="10" height="10" rx="2" fill="#0e4429" /><rect x="560" y="84" width="10" height="10" rx="2" fill="#2ea043" /><rect x="574" y="0" width="10" height="10" rx="2" fill="#39d353" /><rect x="574" y="14" width="10" height="10" rx="2" fill="#0e4429" /><rect x="574" y="28" width="10" height="10" rx="2" fill="#2ea043" /><rect x="574" y="42" width="10" height="10" rx="2" fill="#161b22" /><rect x="574" y="56" width="10" height="10" rx="2" fill="#2ea043" /><rect x="574" y="70" width="10" height="10" rx="2" fill="#2ea043" /><rect x="574" y="84" width="10" height="10" rx="2" fill="#161b22" /><rect x="588" y="0" width="10" height="10" rx="2" fill="#39d353" /><rect x="588" y="14" width="10" height="10" rx="2" fill="#161b22" /><rect x="588" y="28" width="10" height="10" rx="2" fill="#2ea043" /><rect x="588" y="42" width="10" height="10" rx="2" fill="#2ea043" /><rect x="588" y="56" width="10" height="10" rx="2" fill="#161b22" /><rect x="588" y="70" width="10" height="10" rx="2" fill="#2ea043" /><rect x="588" y="84" width="10" height="10" rx="2" fill="#0e4429" /><rect x="602" y="0" width="10" height="10" rx="2" fill="#39d353" /><rect x="602" y="14" width="10" height="10" rx="2" fill="#2ea043" /><rect x="602" y="28" width="10" height="10" rx="2" fill="#0e4429" /><rect x="602" y="42" width="10" height="10" rx="2" fill="#2ea043" /><rect x="602" y="56" width="10" height="10" rx="2" fill="#161b22" /><rect x="602" y="70" width="10" height="10" rx="2" fill="#2ea043" /><rect x="602" y="84" width="10" height="10" rx="2" fill="#2ea043" /><rect x="616" y="0" width="10" height="10" rx="2" fill="#39d353" /><rect x="616" y="14" width="10" height="10" rx="2" fill="#2ea043" /><rect x="616" y="28" width="10" height="10" rx="2" fill="#161b22" /><rect x="616" y="42" width="10" height="10" rx="2" fill="#2ea043" /><rect x="616" y="56" width="10" height="10" rx="2" fill="#2ea043" /><rect x="616" y="70" width="10" height="10" rx="2" fill="#161b22" /><rect x="616" y="84" width="10" height="10" rx="2" fill="#2ea043" /><rect x="630" y="0" width="10" height="10" rx="2" fill="#39d353" /><rect x="630" y="14" width="10" height="10" rx="2" fill="#2ea043" /><rect x="630" y="28" width="10" height="10" rx="2" fill="#2ea043" /><rect x="630" y="42" width="10" height="10" rx="2" fill="#0e4429" /><rect x="630" y="56" width="10" height="10" rx="2" fill="#2ea043" /><rect x="630" y="70" width="10" height="10" rx="2" fill="#161b22" /><rect x="630" y="84" width="10" height="10" rx="2" fill="#2ea043" /><rect x="644" y="0" width="10" height="10" rx="2" fill="#39d353" /><rect x="644" y="14" width="10" height="10" rx="2" fill="#161b22" /><rect x="644" y="28" width="10" height="10" rx="2" fill="#2ea043" /><rect x="644" y="42" width="10" height="10" rx="2" fill="#161b22" /><rect x="644" y="56" width="10" height="10" rx="2" fill="#2ea043" /><rect x="644" y="70" width="10" height="10" rx="2" fill="#2ea043" /><rect x="644" y="84" width="10" height="10" rx="2" fill="#161b22" /><rect x="658" y="0" width="10" height="10" rx="2" fill="#39d353" /><rect x="658" y="14" width="10" height="10" rx="2" fill="#0e4429" /><rect x="658" y="28" width="10" height="10" rx="2" fill="#2ea043" /><rect x="658" y="42" width="10" height="10" rx="2" fill="#2ea043" /><rect x="658" y="56" width="10" height="10" rx="2" fill="#0e4429" /><rect x="658" y="70" width="10" height="10" rx="2" fill="#2ea043" /><rect x="658" y="84" width="10" height="10" rx="2" fill="#161b22" /><rect x="672" y="0" width="10" height="10" rx="2" fill="#39d353" /><rect x="672" y="14" width="10" height="10" rx="2" fill="#2ea043" /><rect x="672" y="28" width="10" height="10" rx="2" fill="#161b22" /><rect x="672" y="42" width="10" height="10" rx="2" fill="#2ea043" /><rect x="672" y="56" width="10" height="10" rx="2" fill="#161b22" /><rect x="672" y="70" width="10" height="10" rx="2" fill="#2ea043" /><rect x="672" y="84" width="10" height="10" rx="2" fill="#2ea043" /><rect x="686" y="0" width="10" height="10" rx="2" fill="#39d353" /><rect x="686" y="14" width="10" height="10" rx="2" fill="#2ea043" /><rect x="686" y="28" width="10" height="10" rx="2" fill="#0e4429" /><rect x="686" y="42" width="10" height="10" rx="2" fill="#2ea043" /><rect x="686" y="56" width="10" height="10" rx="2" fill="#2ea043" /><rect x="686" y="70" width="10" height="10" rx="2" fill="#0e4429" /><rect x="686" y="84" width="10" height="10" rx="2" fill="#2ea043" /><rect x="700" y="0" width="10" height="10" rx="2" fill="#39d353" /><rect x="700" y="14" width="10" height="10" rx="2" fill="#2ea043" /><rect x="700" y="28" width="10" height="10" rx="2" fill="#2ea043" /><rect x="700" y="42" width="10" height="10" rx="2" fill="#161b22" /><rect x="700" y="56" width="10" height="10" rx="2" fill="#2ea043" /><rect x="700" y="70" width="10" height="10" rx="2" fill="#161b22" /><rect x="700" y="84" width="10" height="10" rx="2" fill="#2ea043" /><rect x="714" y="0" width="10" height="10" rx="2" fill="#39d353" /><rect x="714" y="14" width="10" height="10" rx="2" fill="#161b22" /><rect x="714" y="28" width="10" height="10" rx="2" fill="#2ea043" /><rect x="714" y="42" width="10" height="10" rx="2" fill="#0e4429" /><rect x="714" y="56" width="10" height="10" rx="2" fill="#2ea043" /><rect x="714" y="70" width="10" height="10" rx="2" fill="#2ea043" /><rect x="714" y="84" width="10" height="10" rx="2" fill="#0e4429" /><rect x="728" y="0" width="10" height="10" rx="2" fill="#39d353" /><rect x="728" y="14" width="10" height="10" rx="2" fill="#161b22" /><rect x="728" y="28" width="10" height="10" rx="2" fill="#2ea043" /><rect x="728" y="42" width="10" height="10" rx="2" fill="#2ea043" /><rect x="728" y="56" width="10" height="10" rx="2" fill="#161b22" /><rect x="728" y="70" width="10" height="10" rx="2" fill="#2ea043" /><rect x="728" y="84" width="10" height="10" rx="2" fill="#161b22" />
  </g>
  <text x="50" y="622" class="title-bar-text">9,376 contributions in the last year</text>
  <text x="740" y="622" class="title-bar-text">Less</text>
  <rect x="775" y="613" width="10" height="10" rx="2" fill="#161b22"/>
  <rect x="790" y="613" width="10" height="10" rx="2" fill="#0e4429"/>
  <rect x="805" y="613" width="10" height="10" rx="2" fill="#006d32"/>
  <rect x="820" y="613" width="10" height="10" rx="2" fill="#2ea043"/>
  <rect x="835" y="613" width="10" height="10" rx="2" fill="#39d353"/>
  <text x="852" y="622" class="title-bar-text">More</text>

  <!-- SECTION 3: TECH STACK & FEATURED PROJECTS -->
  <!-- Tech Stack -->
  <rect x="35" y="655" width="405" height="270" class="subcard-bg"/>
  <text x="50" y="680" class="cmd-text">&gt; tech stack</text>
  
  <g transform="translate(50, 705)">
    <text x="0" y="0" class="tech-title">Languages</text>
    <text x="0" y="22" class="tech-name">🐍 Python</text>
    <text x="100" y="22" class="tech-name">🟦 C++</text>
    <text x="185" y="22" class="tech-name">🟨 JavaScript</text>
    <text x="300" y="22" class="tech-name">🛢️ SQL</text>

    <text x="0" y="65" class="tech-title">AI / ML</text>
    <text x="0" y="87" class="tech-name">🔥 PyTorch</text>
    <text x="100" y="87" class="tech-name">🟧 TensorFlow</text>
    <text x="200" y="87" class="tech-name">🟠 scikit-learn</text>
    <text x="310" y="87" class="tech-name">👁️ OpenCV</text>

    <text x="0" y="130" class="tech-title">Web</text>
    <text x="0" y="152" class="tech-name">⚛️ React</text>
    <text x="90" y="152" class="tech-name">🟩 Node.js</text>
    <text x="180" y="152" class="tech-name">ex Express.js</text>
    <text x="280" y="152" class="tech-name">🎨 Tailwind CSS</text>

    <text x="0" y="195" class="tech-title">Tools</text>
    <text x="0" y="217" class="tech-name">🟧 Git</text>
    <text x="80" y="217" class="tech-name">🐳 Docker</text>
    <text x="170" y="217" class="tech-name">🟦 VS Code</text>
    <text x="270" y="217" class="tech-name">🐧 Linux</text>
  </g>

  <!-- Featured Projects -->
  <rect x="460" y="655" width="405" height="270" class="subcard-bg"/>
  <text x="475" y="680" class="cmd-text">&gt; featured projects</text>

  <g transform="translate(475, 700)">
    <!-- Project 1 -->
    <circle cx="20" cy="20" r="14" fill="#0d1117" stroke="#30363d"/>
    <text x="15" y="25" fill="#7ee787">⚡</text>
    <text x="45" y="16" class="proj-title">Explainable AI Scam Detection System</text>
    <rect x="330" y="4" width="45" height="18" rx="4" fill="#161b22" stroke="#30363d"/>
    <text x="338" y="16" font-family="monospace" font-size="10" fill="#8b949e">Python</text>
    <text x="45" y="32" class="proj-desc">Multimodal system using LLMs to detect scams in text,</text>
    <text x="45" y="46" class="proj-desc">images, links &amp; QR codes with explainable insights.</text>

    <!-- Project 2 -->
    <g transform="translate(0, 65)">
      <circle cx="20" cy="20" r="14" fill="#0d1117" stroke="#30363d"/>
      <text x="15" y="25" fill="#7ee787">🌐</text>
      <text x="45" y="16" class="proj-title">AI-Powered Climate Risk Intelligence Platform</text>
      <rect x="330" y="4" width="45" height="18" rx="4" fill="#161b22" stroke="#30363d"/>
      <text x="338" y="16" font-family="monospace" font-size="10" fill="#8b949e">Python</text>
      <text x="45" y="32" class="proj-desc">Analysing climate data &amp; generating risk predictions</text>
      <text x="45" y="46" class="proj-desc">using ML and geospatial analytics.</text>
    </g>

    <!-- Project 3 -->
    <g transform="translate(0, 130)">
      <circle cx="20" cy="20" r="14" fill="#0d1117" stroke="#30363d"/>
      <text x="15" y="25" fill="#7ee787">📊</text>
      <text x="45" y="16" class="proj-title">Campus Resource Management System (CRMS)</text>
      <rect x="330" y="4" width="45" height="18" rx="4" fill="#161b22" stroke="#30363d"/>
      <text x="342" y="16" font-family="monospace" font-size="10" fill="#8b949e">Flask</text>
      <text x="45" y="32" class="proj-desc">A web platform for booking &amp; managing campus</text>
      <text x="45" y="46" class="proj-desc">resources efficiently.</text>
    </g>
  </g>

  <!-- SECTION 4: FOOTER -->
  <text x="450" y="965" text-anchor="middle" class="quote-text">“ The best way to predict the future is to invent it. ”</text>
  <text x="450" y="985" text-anchor="middle" class="title-bar-text">- Alan Kay</text>
  
  <line x1="35" y1="1010" x2="865" y2="1010" stroke="#21262d" stroke-width="1"/>
  <text x="35" y="1040" class="cmd-text">&gt; <tspan class="footer-text">thanks for stopping by! have a great day! 👋</tspan></text>
</svg>
